
		<svg xmlns="http://www.w3.org/2000/svg" xmlns:xlink="http://www.w3.org/1999/xlink" version="1.1" width="3086.6881670440343" height="704.3265423604818">
			
			<g transform="scale(4.334408352201719) translate(10, 10)">
				<defs id="SvgjsDefs1309"></defs><g id="SvgjsG1310" featureKey="root" fill="#ffffff" transform="matrix(1,0,0,1,0,0)"></g><g id="SvgjsG1311" featureKey="symbol1" fill="#5f536c" transform="matrix(1.5624699592590332,0,0,1.5624699592590332,543.1266571427345,-18.87543643003779)"><g xmlns="http://www.w3.org/2000/svg" transform="translate(0,-952.36216)"><path style="color:;font-style:normal;font-variant:normal;font-weight:normal;font-stretch:normal;font-size:medium;line-height:normal;font-family:sans-serif;text-indent:0;text-align:start;text-decoration:none;text-decoration-line:none;text-decoration-style:solid;text-decoration-color:;letter-spacing:normal;word-spacing:normal;text-transform:none;direction:ltr;block-progression:tb;writing-mode:lr-tb;baseline-shift:baseline;text-anchor:start;white-space:normal;clip-rule:nonzero;display:inline;overflow:visible;visibility:visible;opacity:1;isolation:auto;mix-blend-mode:normal;color-interpolation:sRGB;color-interpolation-filters:linearRGB;solid-color:;solid-opacity:1;fill:#5f536c;fill-opacity:1;fill-rule:nonzero;stroke:none;stroke-width:1.5;stroke-linecap:butt;stroke-linejoin:miter;stroke-miterlimit:4;stroke-dasharray:none;stroke-dashoffset:0;stroke-opacity:1;color-rendering:auto;image-rendering:auto;shape-rendering:auto;text-rendering:auto;enable-background:accumulate" d="m 50.826172,1002.5098 0,0.75 0,18.7929 9.574219,0 11.214843,7.4532 -3.738281,-7.4532 8.585938,0 0,-19.5429 -25.636719,0 z m 1.5,1.5 22.636719,0 0,16.5429 -9.515625,0 2.296875,4.5801 -6.890625,-4.5801 -8.527344,0 0,-16.5429 z"></path><path d="m 63.6451,993.653 c -12.3376,0 -22.3555,10.0178 -22.3555,22.3554 0,12.3376 10.0179,22.3535 22.3555,22.3535 12.3376,0 22.3555,-10.0159 22.3555,-22.3535 0,-12.3376 -10.0179,-22.3555 -22.3555,-22.3554 z m 0,1.5 c 11.5269,0 20.8555,9.3285 20.8555,20.8554 0,11.527 -9.3286,20.8535 -20.8555,20.8535 -11.5269,0 -20.8555,-9.3265 -20.8555,-20.8535 0,-11.5269 9.3286,-20.8554 20.8555,-20.8554 z" style="color:;font-style:normal;font-variant:normal;font-weight:normal;font-stretch:normal;font-size:medium;line-height:normal;font-family:sans-serif;text-indent:0;text-align:start;text-decoration:none;text-decoration-line:none;text-decoration-style:solid;text-decoration-color:;letter-spacing:normal;word-spacing:normal;text-transform:none;direction:ltr;block-progression:tb;writing-mode:lr-tb;baseline-shift:baseline;text-anchor:start;white-space:normal;clip-rule:nonzero;display:inline;overflow:visible;visibility:visible;opacity:1;isolation:auto;mix-blend-mode:normal;color-interpolation:sRGB;color-interpolation-filters:linearRGB;solid-color:;solid-opacity:1;fill:#5f536c;fill-opacity:1;fill-rule:nonzero;stroke:none;stroke-width:1.5;stroke-linecap:round;stroke-linejoin:round;stroke-miterlimit:4;stroke-dasharray:none;stroke-dashoffset:0;stroke-opacity:1;color-rendering:auto;image-rendering:auto;shape-rendering:auto;text-rendering:auto;enable-background:accumulate"></path><path style="color:;font-style:normal;font-variant:normal;font-weight:normal;font-stretch:normal;font-size:medium;line-height:normal;font-family:sans-serif;text-indent:0;text-align:start;text-decoration:none;text-decoration-line:none;text-decoration-style:solid;text-decoration-color:;letter-spacing:normal;word-spacing:normal;text-transform:none;direction:ltr;block-progression:tb;writing-mode:lr-tb;baseline-shift:baseline;text-anchor:start;white-space:normal;clip-rule:nonzero;display:inline;overflow:visible;visibility:visible;opacity:1;isolation:auto;mix-blend-mode:normal;color-interpolation:sRGB;color-interpolation-filters:linearRGB;solid-color:;solid-opacity:1;fill:#5f536c;fill-opacity:1;fill-rule:nonzero;stroke:none;stroke-width:1.5;stroke-linecap:round;stroke-linejoin:round;stroke-miterlimit:4;stroke-dasharray:none;stroke-dashoffset:0;stroke-opacity:1;color-rendering:auto;image-rendering:auto;shape-rendering:auto;text-rendering:auto;enable-background:accumulate" d="m 37.398438,966.38672 c -6.128879,-0.28381 -12.288832,1.95452 -16.857422,6.52539 -7.309746,7.31339 -8.647655,18.6979 -3.234375,27.50779 5.413279,8.8099 16.172869,12.7594 26,9.543 a 0.75013417,0.75013417 0 1 0 -0.466797,-1.4258 c -9.175112,3.003 -19.201744,-0.6769 -24.25586,-8.90233 -5.054115,-8.22539 -3.805221,-18.83396 3.019532,-25.66211 6.824753,-6.82816 17.432266,-8.08128 25.660156,-3.03125 8.22789,5.05002 11.912528,15.07533 8.914062,24.25195 a 0.75012608,0.75012608 0 1 0 1.425782,0.4668 c 3.211547,-9.82874 -0.744047,-20.5872 -9.556641,-25.9961 -3.304723,-2.02834 -6.97111,-3.10706 -10.648437,-3.27734 z"></path><path style="color:;font-style:normal;font-variant:normal;font-weight:normal;font-stretch:normal;font-size:medium;line-height:normal;font-family:sans-serif;text-indent:0;text-align:start;text-decoration:none;text-decoration-line:none;text-decoration-style:solid;text-decoration-color:;letter-spacing:normal;word-spacing:normal;text-transform:none;direction:ltr;block-progression:tb;writing-mode:lr-tb;baseline-shift:baseline;text-anchor:start;white-space:normal;clip-rule:nonzero;display:inline;overflow:visible;visibility:visible;opacity:1;isolation:auto;mix-blend-mode:normal;color-interpolation:sRGB;color-interpolation-filters:linearRGB;solid-color:;solid-opacity:1;fill:#5f536c;fill-opacity:1;fill-rule:evenodd;stroke:none;stroke-width:1.5;stroke-linecap:butt;stroke-linejoin:miter;stroke-miterlimit:4;stroke-dasharray:none;stroke-dashoffset:0;stroke-opacity:1;color-rendering:auto;image-rendering:auto;shape-rendering:auto;text-rendering:auto;enable-background:accumulate" d="m 33.042969,978.96875 -6.439453,6.43945 0,13.06055 0.75,0 12.310546,0 6.439454,-6.43945 0,-13.06055 -13.060547,0 z m 0.621093,1.5 10.939454,0 0,10.93945 -5.560547,5.56055 -10.939453,0 0,-10.93945 5.560546,-5.56055 z"></path><path style="color:;font-style:normal;font-variant:normal;font-weight:normal;font-stretch:normal;font-size:medium;line-height:normal;font-family:sans-serif;text-indent:0;text-align:start;text-decoration:none;text-decoration-line:none;text-decoration-style:solid;text-decoration-color:;letter-spacing:normal;word-spacing:normal;text-transform:none;direction:ltr;block-progression:tb;writing-mode:lr-tb;baseline-shift:baseline;text-anchor:start;white-space:normal;clip-rule:nonzero;display:inline;overflow:visible;visibility:visible;opacity:1;isolation:auto;mix-blend-mode:normal;color-interpolation:sRGB;color-interpolation-filters:linearRGB;solid-color:;solid-opacity:1;fill:#5f536c;fill-opacity:1;fill-rule:evenodd;stroke:none;stroke-width:1.5;stroke-linecap:butt;stroke-linejoin:miter;stroke-miterlimit:4;stroke-dasharray:none;stroke-dashoffset:0;stroke-opacity:1;color-rendering:auto;image-rendering:auto;shape-rendering:auto;text-rendering:auto;enable-background:accumulate" d="m 44.824219,979.18945 -5.78125,5.7793 -11.689453,0 0,1.5 12.310546,0 6.220704,-6.21875 -1.060547,-1.06055 z"></path><path style="color:;font-style:normal;font-variant:normal;font-weight:normal;font-stretch:normal;font-size:medium;line-height:normal;font-family:sans-serif;text-indent:0;text-align:start;text-decoration:none;text-decoration-line:none;text-decoration-style:solid;text-decoration-color:;letter-spacing:normal;word-spacing:normal;text-transform:none;direction:ltr;block-progression:tb;writing-mode:lr-tb;baseline-shift:baseline;text-anchor:start;white-space:normal;clip-rule:nonzero;display:inline;overflow:visible;visibility:visible;opacity:1;isolation:auto;mix-blend-mode:normal;color-interpolation:sRGB;color-interpolation-filters:linearRGB;solid-color:;solid-opacity:1;fill:#5f536c;fill-opacity:1;fill-rule:evenodd;stroke:none;stroke-width:1.5;stroke-linecap:butt;stroke-linejoin:miter;stroke-miterlimit:4;stroke-dasharray:none;stroke-dashoffset:0;stroke-opacity:1;color-rendering:auto;image-rendering:auto;shape-rendering:auto;text-rendering:auto;enable-background:accumulate" d="m 38.603516,985.71875 0,12 1.5,0 0,-12 -1.5,0 z"></path></g></g><g id="SvgjsG1312" featureKey="text1" fill="#398137" transform="matrix(4.225351333618164,0,0,4.225351333618164,-6.169011070813529,-0.40844775296240243)"><path d="M1.46 16.94 c0 -3.98 3.26 -7.12 7.28 -7.14 l0 0 c1.72 0 3.3 0.6 4.52 1.54 l0 0 c0.22 0.18 0.26 0.52 0.08 0.7 l0 0 c-0.16 0.24 -0.48 0.26 -0.68 0.1 l0 0 c-1.08 -0.84 -2.44 -1.36 -3.92 -1.36 l0 0 c-3.5 0 -6.3 2.74 -6.3 6.16 l0 0 c0 3.34 2.8 6.08 6.3 6.08 l0 0 c1.48 0 2.84 -0.48 3.88 -1.36 l0 0 c0.24 -0.16 0.56 -0.12 0.7 0.12 l0 0 c0.2 0.18 0.16 0.54 -0.06 0.7 l0 0 c-1.22 0.94 -2.8 1.52 -4.52 1.52 l0 0 c-4.02 0 -7.28 -3.16 -7.28 -7.06 l0 0 z M16.82 19.1 c0 -2.66 2.08 -4.9 4.64 -4.9 l0 0 c2.58 0 4.64 2.24 4.64 4.9 l0 0 c0 2.66 -2.06 4.9 -4.64 4.9 l0 0 c-2.56 0 -4.64 -2.24 -4.64 -4.9 l0 0 z M17.78 19.1 c0 2.18 1.68 3.94 3.68 3.94 l0 0 c2 0 3.68 -1.76 3.68 -3.94 l0 0 c0 -2.18 -1.68 -3.96 -3.68 -3.96 l0 0 c-2 0 -3.68 1.78 -3.68 3.96 l0 0 z M43.800000000000004 23.54 l0 -5.34 c-0.04 -1.66 -1.36 -3.04 -3.04 -3.04 c-1.66 0 -3.02 1.38 -3.02 3.04 l0 5.34 l0 0.06 c0 0.02 -0.02 0.04 -0.02 0.04 l0 0.04 c-0.04 0.12 -0.14 0.2 -0.24 0.26 c-0.08 0.04 -0.16 0.06 -0.24 0.06 l-0.06 0 l-0.04 0 c-0.02 0 -0.04 -0.02 -0.04 -0.02 c-0.04 0 -0.08 -0.04 -0.12 -0.06 c-0.02 0 -0.04 -0.02 -0.06 -0.04 l-0.06 -0.06 c-0.02 -0.02 -0.02 -0.04 -0.04 -0.04 c0 -0.02 0 -0.02 -0.02 -0.04 c0 0 0 -0.02 -0.02 -0.04 c0 -0.02 0 -0.04 -0.02 -0.06 l0 -0.06 l0 -0.04 l0 -5.34 c0 -1.66 -1.34 -3.04 -3.02 -3.04 s-3.02 1.38 -3.02 3.04 l0 5.34 c0 0.16 -0.08 0.3 -0.22 0.38 c-0.02 0.02 -0.08 0.06 -0.12 0.06 c-0.02 0.02 -0.04 0.02 -0.08 0.02 l-0.06 0 l-0.06 0 c-0.18 -0.02 -0.34 -0.18 -0.4 -0.36 l0 -0.1 l0 -5.34 l0 -0.16 l0 -3.36 c0 -0.26 0.22 -0.46 0.46 -0.46 c0.28 0 0.48 0.2 0.48 0.46 l0 0.94 c0.72 -0.86 1.8 -1.4 3.02 -1.4 c1.52 0 2.82 0.84 3.5 2.08 c0.7 -1.24 2.02 -2.08 3.52 -2.08 c2.2 0 3.98 1.78 3.98 3.98 l0 5.34 c0 0.24 -0.2 0.46 -0.48 0.46 c-0.26 0 -0.46 -0.22 -0.46 -0.46 z M62.82 23.54 l0 -5.34 c-0.04 -1.66 -1.36 -3.04 -3.04 -3.04 c-1.66 0 -3.02 1.38 -3.02 3.04 l0 5.34 l0 0.06 c0 0.02 -0.02 0.04 -0.02 0.04 l0 0.04 c-0.04 0.12 -0.14 0.2 -0.24 0.26 c-0.08 0.04 -0.16 0.06 -0.24 0.06 l-0.06 0 l-0.04 0 c-0.02 0 -0.04 -0.02 -0.04 -0.02 c-0.04 0 -0.08 -0.04 -0.12 -0.06 c-0.02 0 -0.04 -0.02 -0.06 -0.04 l-0.06 -0.06 c-0.02 -0.02 -0.02 -0.04 -0.04 -0.04 c0 -0.02 0 -0.02 -0.02 -0.04 c0 0 0 -0.02 -0.02 -0.04 c0 -0.02 0 -0.04 -0.02 -0.06 l0 -0.06 l0 -0.04 l0 -5.34 c0 -1.66 -1.34 -3.04 -3.02 -3.04 s-3.02 1.38 -3.02 3.04 l0 5.34 c0 0.16 -0.08 0.3 -0.22 0.38 c-0.02 0.02 -0.08 0.06 -0.12 0.06 c-0.02 0.02 -0.04 0.02 -0.08 0.02 l-0.06 0 l-0.06 0 c-0.18 -0.02 -0.34 -0.18 -0.4 -0.36 l0 -0.1 l0 -5.34 l0 -0.16 l0 -3.36 c0 -0.26 0.22 -0.46 0.46 -0.46 c0.28 0 0.48 0.2 0.48 0.46 l0 0.94 c0.72 -0.86 1.8 -1.4 3.02 -1.4 c1.52 0 2.82 0.84 3.5 2.08 c0.7 -1.24 2.02 -2.08 3.52 -2.08 c2.2 0 3.98 1.78 3.98 3.98 l0 5.34 c0 0.24 -0.2 0.46 -0.48 0.46 c-0.26 0 -0.46 -0.22 -0.46 -0.46 z M71.88 24 c-2.64 0 -4.76 -2.2 -4.76 -4.88 c0 -2.72 2.12 -4.92 4.76 -4.92 c2.52 0 4.52 2 4.72 4.56 l0 0.02 l0 0.06 c0 0.26 -0.22 0.44 -0.48 0.44 l-8.04 0 c0.1 2.14 1.78 3.76 3.8 3.76 c1.3 0 2.5 -0.68 3.16 -1.78 c0.14 -0.24 0.44 -0.28 0.64 -0.16 c0.22 0.16 0.3 0.44 0.16 0.68 c-0.84 1.34 -2.3 2.22 -3.96 2.22 z M71.88 15.16 c-1.84 0 -3.38 1.32 -3.74 3.18 l7.42 0 c-0.32 -1.84 -1.88 -3.18 -3.68 -3.18 z M86.99999999999999 23.52 l0 -5.32 c0 -1.66 -1.34 -3.02 -3.02 -3.02 c-1.66 0 -3 1.36 -3.04 3.02 l0 5.32 l0 0.08 c-0.02 0.08 -0.04 0.16 -0.1 0.22 c-0.08 0.12 -0.22 0.18 -0.36 0.18 l-0.12 0 c-0.14 -0.04 -0.26 -0.14 -0.32 -0.26 c-0.02 -0.02 -0.02 -0.04 -0.02 -0.06 s-0.02 -0.04 -0.02 -0.04 l0 -0.12 l0 -5.32 l0 -0.16 l0 -3.34 c0 -0.26 0.2 -0.48 0.48 -0.48 c0.26 0 0.46 0.22 0.46 0.48 l0 0.94 c0.72 -0.86 1.82 -1.42 3.04 -1.42 c2.2 0 3.98 1.8 3.98 3.98 l0 5.32 c0 0.28 -0.22 0.48 -0.48 0.48 s-0.48 -0.2 -0.48 -0.48 z M95.19999999999999 14.2 c0.24 0 0.48 0.24 0.48 0.48 s-0.24 0.48 -0.48 0.48 l-1.26 0 l0 7.14 c0 0.48 0.48 0.72 0.72 0.72 s0.5 0.26 0.5 0.5 s-0.26 0.48 -0.5 0.48 c-0.98 0 -1.72 -0.72 -1.72 -1.7 l0 -7.14 l-1.22 0 c-0.48 0 -0.48 -0.24 -0.48 -0.48 s0 -0.48 0.48 -0.48 l1.22 0 l0 -3.64 c0 -0.24 0.24 -0.48 0.48 -0.48 c0.26 0 0.52 0.24 0.52 0.48 l0 3.64 l1.26 0 z M100.47999999999999 23.52 l0 -13.04 c0 -0.26 0.22 -0.48 0.48 -0.48 l0.06 0 l3.06 0 c1.92 0 3.48 1.56 3.48 3.5 c0 1.1 -0.54 2.08 -1.34 2.72 c1.58 0.54 2.74 2.02 2.74 3.78 c0 2.22 -1.8 4 -4 4 l-3.94 0 l-0.06 0 l-0.02 0 c-0.26 0 -0.46 -0.22 -0.46 -0.48 z M101.46 23.02 l3.5 0 c1.66 0 3 -1.34 3.02 -3.02 c-0.02 -1.66 -1.36 -3.02 -3.02 -3.02 l-3.5 0 l0 6.04 z M101.46 15.98 l2.62 0 c1.38 0 2.5 -1.12 2.5 -2.48 c0 -1.4 -1.12 -2.52 -2.5 -2.52 l-2.62 0 l0 5 z M111.67999999999999 19.1 c0 -2.66 2.08 -4.9 4.64 -4.9 l0 0 c2.58 0 4.64 2.24 4.64 4.9 l0 0 c0 2.66 -2.06 4.9 -4.64 4.9 l0 0 c-2.56 0 -4.64 -2.24 -4.64 -4.9 l0 0 z M112.63999999999999 19.1 c0 2.18 1.68 3.94 3.68 3.94 l0 0 c2 0 3.68 -1.76 3.68 -3.94 l0 0 c0 -2.18 -1.68 -3.96 -3.68 -3.96 l0 0 c-2 0 -3.68 1.78 -3.68 3.96 l0 0 z M124.35999999999999 23.9 c-0.2 -0.16 -0.24 -0.44 -0.1 -0.66 l3 -4.1 l-3 -4.12 c-0.14 -0.24 -0.1 -0.52 0.1 -0.68 c0.2 -0.14 0.52 -0.1 0.66 0.12 l2.84 3.86 l2.82 -3.86 c0.16 -0.22 0.46 -0.26 0.64 -0.12 c0.24 0.16 0.28 0.44 0.14 0.68 l-3.02 4.12 l3.02 4.1 c0.14 0.22 0.1 0.5 -0.14 0.66 c-0.06 0.06 -0.16 0.1 -0.24 0.1 c-0.16 0 -0.32 -0.06 -0.4 -0.2 l-2.82 -3.86 l-2.84 3.86 c-0.08 0.14 -0.24 0.2 -0.38 0.2 c-0.08 0 -0.18 -0.04 -0.28 -0.1 z"></path></g>
			</g>
		</svg>
	