<svg width="409" height="577" viewBox="0 0 409 577" fill="none" xmlns="http://www.w3.org/2000/svg">
<path fill-rule="evenodd" clip-rule="evenodd" d="M216.534 0H0V48L8.10623e-06 529H216.534L273 577H409V48H273L216.534 0ZM11.13 62.4941C8 66.7317 8 72.8078 8 84.96V492.04C8 504.192 8 510.268 11.13 514.506C12.0774 515.789 13.2113 516.923 14.4941 517.87C18.7317 521 24.8078 521 36.96 521H372.04C384.192 521 390.268 521 394.506 517.87C395.789 516.923 396.923 515.789 397.87 514.506C401 510.268 401 504.192 401 492.04V84.96C401 72.8078 401 66.7317 397.87 62.4941C396.923 61.2113 395.789 60.0774 394.506 59.13C390.268 56 384.192 56 372.04 56H36.96C24.8078 56 18.7317 56 14.4941 59.13C13.2113 60.0774 12.0774 61.2113 11.13 62.4941Z" fill="#8F3A3A"/>
</svg>
