<svg width="409" height="577" viewBox="0 0 409 577" fill="none" xmlns="http://www.w3.org/2000/svg">
<mask id="path-1-inside-1_722_792" fill="white">
<path fill-rule="evenodd" clip-rule="evenodd" d="M-8.10623e-06 0H216.534L273 48H409V577H273L216.534 529H0L-8.10623e-06 48V0Z"/>
</mask>
<path d="M216.534 0L219.125 -3.04765L218.005 -4H216.534V0ZM-8.10623e-06 0V-4H-4.00001V0H-8.10623e-06ZM273 48L270.409 51.0476L271.53 52H273V48ZM409 48H413V44H409V48ZM409 577V581H413V577H409ZM273 577L270.409 580.048L271.53 581H273V577ZM216.534 529L219.125 525.952L218.005 525H216.534V529ZM0 529L-4 529L-4 533H0V529ZM-8.10623e-06 48L-4.00001 48L-4.00001 48L-8.10623e-06 48ZM216.534 -4H-8.10623e-06V4H216.534V-4ZM275.591 44.9524L219.125 -3.04765L213.943 3.04765L270.409 51.0476L275.591 44.9524ZM273 52H409V44H273V52ZM405 48V577H413V48H405ZM409 573H273V581H409V573ZM275.591 573.952L219.125 525.952L213.943 532.048L270.409 580.048L275.591 573.952ZM216.534 525H0V533H216.534V525ZM4 529L3.99999 48L-4.00001 48L-4 529L4 529ZM-4.00001 0V48H3.99999V0H-4.00001Z" fill="#949494" mask="url(#path-1-inside-1_722_792)"/>
</svg>
